{
  "accessors": [
    {
      "bufferView": 2,
      "componentType": 5126,
      "count": 91,
      "max": [
        0.0949874222278595,
        18.707250595092773,
        5.667428970336914
      ],
      "min": [
        -0.09498743712902069,
        18.511760711669922,
        5.149744987487793
      ],
      "type": "VEC3"
    },
    {
      "bufferView": 2,
      "byteOffset": 1092,
      "componentType": 5126,
      "count": 91,
      "max": [
        1.0,
        0.9993504285812378,
        0.9973239302635193
      ],
      "min": [
        -1.0,
        -1.0,
        -1.0
      ],
      "type": "VEC3"
    },
    {
      "bufferView": 1,
      "componentType": 5126,
      "count": 91,
      "max": [
        1.0,
        1.0
      ],
      "min": [
        0.0,
        0.0
      ],
      "type": "VEC2"
    },
    {
      "bufferView": 0,
      "componentType": 5125,
      "count": 180,
      "type": "SCALAR"
    },
    {
      "bufferView": 2,
      "byteOffset": 2184,
      "componentType": 5126,
      "count": 4,
      "max": [
        14.399999618530273,
        24.0,
        0.0
      ],
      "min": [
        -14.399999618530273,
        -24.0,
        0.0
      ],
      "type": "VEC3"
    },
    {
      "bufferView": 2,
      "byteOffset": 2232,
      "componentType": 5126,
      "count": 4,
      "max": [
        0.0,
        0.0,
        1.0
      ],
      "min": [
        0.0,
        0.0,
        1.0
      ],
      "type": "VEC3"
    },
    {
      "bufferView": 1,
      "byteOffset": 728,
      "componentType": 5126,
      "count": 4,
      "max": [
        1.0,
        1.0
      ],
      "min": [
        0.0,
        0.0
      ],
      "type": "VEC2"
    },
    {
      "bufferView": 0,
      "byteOffset": 720,
      "componentType": 5125,
      "count": 6,
      "type": "SCALAR"
    },
    {
      "bufferView": 2,
      "byteOffset": 2280,
      "componentType": 5126,
      "count": 64,
      "max": [
        5.818844795227051,
        13.319109916687012,
        0.026059189811348915
      ],
      "min": [
        -5.442655086517334,
        -0.1126113012433052,
        0.0148048996925354
      ],
      "type": "VEC3"
    },
    {
      "bufferView": 2,
      "byteOffset": 3048,
      "componentType": 5126,
      "count": 64,
      "max": [
        0.9999691247940063,
        0.009770171716809273,
        1.0
      ],
      "min": [
        -0.9999683499336243,
        -0.008624590933322906,
        -1.0
      ],
      "type": "VEC3"
    },
    {
      "bufferView": 1,
      "byteOffset": 760,
      "componentType": 5126,
      "count": 64,
      "max": [
        1.0,
        1.0
      ],
      "min": [
        0.05994565039873123,
        0.0
      ],
      "type": "VEC2"
    },
    {
      "bufferView": 0,
      "byteOffset": 744,
      "componentType": 5125,
      "count": 126,
      "type": "SCALAR"
    },
    {
      "bufferView": 2,
      "byteOffset": 3816,
      "componentType": 5126,
      "count": 91,
      "max": [
        0.09498581290245056,
        -18.62177085876465,
        5.667428970336914
      ],
      "min": [
        -0.09498908370733261,
        -18.8172607421875,
        5.149744987487793
      ],
      "type": "VEC3"
    },
    {
      "bufferView": 2,
      "byteOffset": 4908,
      "componentType": 5126,
      "count": 91,
      "max": [
        1.0,
        1.0,
        0.9973239302635193
      ],
      "min": [
        -1.0,
        -0.9993494749069214,
        -1.0
      ],
      "type": "VEC3"
    },
    {
      "bufferView": 1,
      "byteOffset": 1272,
      "componentType": 5126,
      "count": 91,
      "max": [
        1.0,
        1.0
      ],
      "min": [
        0.0,
        0.0
      ],
      "type": "VEC2"
    },
    {
      "bufferView": 0,
      "byteOffset": 1248,
      "componentType": 5125,
      "count": 180,
      "type": "SCALAR"
    },
    {
      "bufferView": 2,
      "byteOffset": 6000,
      "componentType": 5126,
      "count": 59,
      "max": [
        7.378505229949951,
        17.18610954284668,
        0.02605869062244892
      ],
      "min": [
        -7.648675918579102,
        -0.16213129460811615,
        0.01457064040005207
      ],
      "type": "VEC3"
    },
    {
      "bufferView": 2,
      "byteOffset": 6708,
      "componentType": 5126,
      "count": 59,
      "max": [
        0.9999352097511292,
        0.00803615152835846,
        1.0
      ],
      "min": [
        -0.9999375939369202,
        -0.008036184124648571,
        -1.0
      ],
      "type": "VEC3"
    },
    {
      "bufferView": 1,
      "byteOffset": 2000,
      "componentType": 5126,
      "count": 59,
      "max": [
        1.0,
        1.0
      ],
      "min": [
        0.0,
        0.0
      ],
      "type": "VEC2"
    },
    {
      "bufferView": 0,
      "byteOffset": 1968,
      "componentType": 5125,
      "count": 132,
      "type": "SCALAR"
    },
    {
      "bufferView": 2,
      "byteOffset": 7416,
      "componentType": 5126,
      "count": 247,
      "max": [
        13.860289573669434,
        0.05000000074505806,
        2.460036039352417
      ],
      "min": [
        13.524209976196289,
        -0.05000000074505806,
        0.009264945983886719
      ],
      "type": "VEC3"
    },
    {
      "bufferView": 2,
      "byteOffset": 10380,
      "componentType": 5126,
      "count": 247,
      "max": [
        1.0,
        1.0,
        1.0
      ],
      "min": [
        -1.0,
        -1.0,
        -1.0
      ],
      "type": "VEC3"
    },
    {
      "bufferView": 1,
      "byteOffset": 2472,
      "componentType": 5126,
      "count": 247,
      "max": [
        1.0,
        1.0
      ],
      "min": [
        -1.0,
        0.0
      ],
      "type": "VEC2"
    },
    {
      "bufferView": 0,
      "byteOffset": 2496,
      "componentType": 5125,
      "count": 816,
      "type": "SCALAR"
    },
    {
      "bufferView": 2,
      "byteOffset": 13344,
      "componentType": 5126,
      "count": 59,
      "max": [
        7.40700101852417,
        -0.09067440032958984,
        0.026048919185996056
      ],
      "min": [
        -7.620197772979736,
        -17.14483070373535,
        0.01456086989492178
      ],
      "type": "VEC3"
    },
    {
      "bufferView": 2,
      "byteOffset": 14052,
      "componentType": 5126,
      "count": 59,
      "max": [
        0.999934196472168,
        0.00817569624632597,
        1.0
      ],
      "min": [
        -0.9999275207519531,
        -0.008175604976713657,
        -1.0
      ],
      "type": "VEC3"
    },
    {
      "bufferView": 1,
      "byteOffset": 4448,
      "componentType": 5126,
      "count": 59,
      "max": [
        1.0,
        1.0
      ],
      "min": [
        0.0,
        0.0
      ],
      "type": "VEC2"
    },
    {
      "bufferView": 0,
      "byteOffset": 5760,
      "componentType": 5125,
      "count": 132,
      "type": "SCALAR"
    },
    {
      "bufferView": 2,
      "byteOffset": 14760,
      "componentType": 5126,
      "count": 64,
      "max": [
        5.80572509765625,
        -0.0769495964050293,
        0.026049280539155006
      ],
      "min": [
        -5.455770015716553,
        -13.330940246582031,
        0.014794980175793171
      ],
      "type": "VEC3"
    },
    {
      "bufferView": 2,
      "byteOffset": 15528,
      "componentType": 5126,
      "count": 64,
      "max": [
        0.9999679327011108,
        0.0087411068379879,
        1.0
      ],
      "min": [
        -0.9999617338180542,
        -0.009902261197566986,
        -1.0
      ],
      "type": "VEC3"
    },
    {
      "bufferView": 1,
      "byteOffset": 4920,
      "componentType": 5126,
      "count": 64,
      "max": [
        1.0,
        1.0
      ],
      "min": [
        0.05994565039873123,
        0.0
      ],
      "type": "VEC2"
    },
    {
      "bufferView": 0,
      "byteOffset": 6288,
      "componentType": 5125,
      "count": 126,
      "type": "SCALAR"
    },
    {
      "bufferView": 2,
      "byteOffset": 16296,
      "componentType": 5126,
      "count": 8281,
      "max": [
        3.323664903640747,
        22.845460891723633,
        7.268945217132568
      ],
      "min": [
        -13.898130416870117,
        -22.955459594726563,
        0.009267210960388184
      ],
      "type": "VEC3"
    },
    {
      "bufferView": 2,
      "byteOffset": 115668,
      "componentType": 5126,
      "count": 8281,
      "max": [
        1.0,
        1.0,
        1.0
      ],
      "min": [
        -1.0,
        -1.0,
        -1.0
      ],
      "type": "VEC3"
    },
    {
      "bufferView": 1,
      "byteOffset": 5432,
      "componentType": 5126,
      "count": 8281,
      "max": [
        1.0,
        1.0
      ],
      "min": [
        -1.0,
        0.0
      ],
      "type": "VEC2"
    },
    {
      "bufferView": 0,
      "byteOffset": 6792,
      "componentType": 5125,
      "count": 29112,
      "type": "SCALAR"
    },
    {
      "bufferView": 2,
      "byteOffset": 215040,
      "componentType": 5126,
      "count": 741,
      "max": [
        0.4586696922779083,
        23.556549072265625,
        5.99526309967041
      ],
      "min": [
        -0.4623020887374878,
        17.6860294342041,
        0.1696500927209854
      ],
      "type": "VEC3"
    },
    {
      "bufferView": 2,
      "byteOffset": 223932,
      "componentType": 5126,
      "count": 741,
      "max": [
        1.0,
        1.0,
        1.0
      ],
      "min": [
        -1.0,
        -1.0,
        -1.0
      ],
      "type": "VEC3"
    },
    {
      "bufferView": 1,
      "byteOffset": 71680,
      "componentType": 5126,
      "count": 741,
      "max": [
        1.0,
        1.0
      ],
      "min": [
        -1.0,
        0.0
      ],
      "type": "VEC2"
    },
    {
      "bufferView": 0,
      "byteOffset": 123240,
      "componentType": 5125,
      "count": 3456,
      "type": "SCALAR"
    },
    {
      "bufferView": 2,
      "byteOffset": 232824,
      "componentType": 5126,
      "count": 87,
      "max": [
        1.7744890451431274,
        -18.80120086669922,
        7.349767208099365
      ],
      "min": [
        -1.7744929790496826,
        -18.952600479125977,
        5.070960998535156
      ],
      "type": "VEC3"
    },
    {
      "bufferView": 2,
      "byteOffset": 233868,
      "componentType": 5126,
      "count": 87,
      "max": [
        1.0,
        1.0,
        1.0
      ],
      "min": [
        -1.0,
        -1.0,
        -1.0
      ],
      "type": "VEC3"
    },
    {
      "bufferView": 1,
      "byteOffset": 77608,
      "componentType": 5126,
      "count": 87,
      "max": [
        1.0,
        1.0
      ],
      "min": [
        0.0,
        0.0
      ],
      "type": "VEC2"
    },
    {
      "bufferView": 0,
      "byteOffset": 137064,
      "componentType": 5125,
      "count": 216,
      "type": "SCALAR"
    },
    {
      "bufferView": 2,
      "byteOffset": 234912,
      "componentType": 5126,
      "count": 87,
      "max": [
        1.7744909524917603,
        18.842599868774414,
        7.349767208099365
      ],
      "min": [
        -1.7744909524917603,
        18.691200256347656,
        5.070960998535156
      ],
      "type": "VEC3"
    },
    {
      "bufferView": 2,
      "byteOffset": 235956,
      "componentType": 5126,
      "count": 87,
      "max": [
        1.0,
        1.0,
        1.0
      ],
      "min": [
        -1.0,
        -1.0,
        -1.0
      ],
      "type": "VEC3"
    },
    {
      "bufferView": 1,
      "byteOffset": 78304,
      "componentType": 5126,
      "count": 87,
      "max": [
        1.0,
        1.0
      ],
      "min": [
        0.0,
        0.0
      ],
      "type": "VEC2"
    },
    {
      "bufferView": 0,
      "byteOffset": 137928,
      "componentType": 5125,
      "count": 216,
      "type": "SCALAR"
    },
    {
      "bufferView": 2,
      "byteOffset": 237000,
      "componentType": 5126,
      "count": 741,
      "max": [
        0.46230050921440125,
        -17.796030044555664,
        5.99526309967041
      ],
      "min": [
        -0.45867130160331726,
        -23.666549682617188,
        0.1696500927209854
      ],
      "type": "VEC3"
    },
    {
      "bufferView": 2,
      "byteOffset": 245892,
      "componentType": 5126,
      "count": 741,
      "max": [
        1.0,
        1.0,
        1.0
      ],
      "min": [
        -1.0,
        -1.0,
        -1.0
      ],
      "type": "VEC3"
    },
    {
      "bufferView": 1,
      "byteOffset": 79000,
      "componentType": 5126,
      "count": 741,
      "max": [
        1.0,
        1.0
      ],
      "min": [
        -1.0,
        0.0
      ],
      "type": "VEC2"
    },
    {
      "bufferView": 0,
      "byteOffset": 138792,
      "componentType": 5125,
      "count": 3456,
      "type": "SCALAR"
    },
    {
      "bufferView": 2,
      "byteOffset": 254784,
      "componentType": 5126,
      "count": 52,
      "max": [
        9.385156631469727,
        20.11557960510254,
        0.013576280325651169
      ],
      "min": [
        -9.392425537109375,
        -20.22340965270996,
        0.013566330075263977
      ],
      "type": "VEC3"
    },
    {
      "bufferView": 2,
      "byteOffset": 255408,
      "componentType": 5126,
      "count": 52,
      "max": [
        3.767285594591385e-09,
        2.4040575752337645e-08,
        1.0
      ],
      "min": [
        -3.770317391627032e-09,
        -2.4040609503117594e-08,
        0.9999999403953552
      ],
      "type": "VEC3"
    },
    {
      "bufferView": 1,
      "byteOffset": 84928,
      "componentType": 5126,
      "count": 52,
      "max": [
        0.959513783454895,
        0.9615353941917419
      ],
      "min": [
        0.04059835895895958,
        0.5126634240150452
      ],
      "type": "VEC2"
    },
    {
      "bufferView": 0,
      "byteOffset": 152616,
      "componentType": 5125,
      "count": 120,
      "type": "SCALAR"
    },
    {
      "bufferView": 2,
      "byteOffset": 256032,
      "componentType": 5126,
      "count": 197,
      "max": [
        13.1210298538208,
        -8.897662162780762,
        0.03737755864858627
      ],
      "min": [
        -13.136839866638184,
        -20.431270599365234,
        0.004512058105319738
      ],
      "type": "VEC3"
    },
    {
      "bufferView": 2,
      "byteOffset": 258396,
      "componentType": 5126,
      "count": 197,
      "max": [
        0.8621413707733154,
        0.9999998807907104,
        1.0
      ],
      "min": [
        -0.9162953495979309,
        -0.999999463558197,
        -0.9999848008155823
      ],
      "type": "VEC3"
    },
    {
      "bufferView": 1,
      "byteOffset": 85344,
      "componentType": 5126,
      "count": 197,
      "max": [
        1.0,
        1.0
      ],
      "min": [
        0.0,
        0.0
      ],
      "type": "VEC2"
    },
    {
      "bufferView": 0,
      "byteOffset": 153096,
      "componentType": 5125,
      "count": 456,
      "type": "SCALAR"
    },
    {
      "bufferView": 2,
      "byteOffset": 260760,
      "componentType": 5126,
      "count": 92,
      "max": [
        2.5849781036376953,
        19.026939392089844,
        0.014212990179657936
      ],
      "min": [
        -13.32349967956543,
        -20.426790237426758,
        0.013566269539296627
      ],
      "type": "VEC3"
    },
    {
      "bufferView": 2,
      "byteOffset": 261864,
      "componentType": 5126,
      "count": 92,
      "max": [
        0.0,
        -0.0,
        1.0
      ],
      "min": [
        0.0,
        -0.0,
        1.0
      ],
      "type": "VEC3"
    },
    {
      "bufferView": 1,
      "byteOffset": 86920,
      "componentType": 5126,
      "count": 92,
      "max": [
        1.0,
        1.0
      ],
      "min": [
        0.0,
        0.0
      ],
      "type": "VEC2"
    },
    {
      "bufferView": 0,
      "byteOffset": 154920,
      "componentType": 5125,
      "count": 192,
      "type": "SCALAR"
    },
    {
      "bufferView": 2,
      "byteOffset": 262968,
      "componentType": 5126,
      "count": 197,
      "max": [
        13.12893009185791,
        20.324010848999023,
        0.037387389689683914
      ],
      "min": [
        -13.12891960144043,
        8.790950775146484,
        0.004521883092820644
      ],
      "type": "VEC3"
    },
    {
      "bufferView": 2,
      "byteOffset": 265332,
      "componentType": 5126,
      "count": 197,
      "max": [
        0.9162593483924866,
        1.0,
        1.0
      ],
      "min": [
        -0.8621314764022827,
        -0.9999997019767761,
        -0.9999848008155823
      ],
      "type": "VEC3"
    },
    {
      "bufferView": 1,
      "byteOffset": 87656,
      "componentType": 5126,
      "count": 197,
      "max": [
        1.0,
        1.0
      ],
      "min": [
        0.0,
        0.0
      ],
      "type": "VEC2"
    },
    {
      "bufferView": 0,
      "byteOffset": 155688,
      "componentType": 5125,
      "count": 456,
      "type": "SCALAR"
    },
    {
      "bufferView": 2,
      "byteOffset": 267696,
      "componentType": 5126,
      "count": 148,
      "max": [
        13.317170143127441,
        20.321630477905273,
        0.014222810044884682
      ],
      "min": [
        -13.324230194091797,
        -20.429929733276367,
        0.013574199751019478
      ],
      "type": "VEC3"
    },
    {
      "bufferView": 2,
      "byteOffset": 269472,
      "componentType": 5126,
      "count": 148,
      "max": [
        0.0,
        -0.0,
        1.0
      ],
      "min": [
        0.0,
        -0.0,
        1.0
      ],
      "type": "VEC3"
    },
    {
      "bufferView": 1,
      "byteOffset": 89232,
      "componentType": 5126,
      "count": 148,
      "max": [
        1.0,
        1.0
      ],
      "min": [
        0.0,
        0.0
      ],
      "type": "VEC2"
    },
    {
      "bufferView": 0,
      "byteOffset": 157512,
      "componentType": 5125,
      "count": 330,
      "type": "SCALAR"
    }
  ],
  "asset": {
    "extras": {
      "author": "chofervirtual132 (https://sketchfab.com/elchofervirtual132)",
      "license": "CC-BY-4.0 (http://creativecommons.org/licenses/by/4.0/)",
      "source": "https://sketchfab.com/3d-models/sport-court-acbc8d3daf7a4577a16e5ea3e68f7c21",
      "title": "Sport Court"
    },
    "generator": "Sketchfab-16.60.0",
    "version": "2.0"
  },
  "bufferViews": [
    {
      "buffer": 0,
      "byteLength": 158832,
      "name": "floatBufferViews",
      "target": 34963
    },
    {
      "buffer": 0,
      "byteLength": 90416,
      "byteOffset": 158832,
      "byteStride": 8,
      "name": "floatBufferViews",
      "target": 34962
    },
    {
      "buffer": 0,
      "byteLength": 271248,
      "byteOffset": 249248,
      "byteStride": 12,
      "name": "floatBufferViews",
      "target": 34962
    }
  ],
  "buffers": [
    {
      "byteLength": 520496,
      "uri": "scene.bin"
    }
  ],
  "materials": [
    {
      "doubleSided": true,
      "name": "Default",
      "pbrMetallicRoughness": {
        "metallicFactor": 0.0,
        "roughnessFactor": 0.6
      }
    },
    {
      "doubleSided": true,
      "name": "Material",
      "pbrMetallicRoughness": {
        "baseColorFactor": [
          0.5093653233168213,
          0.5093653233168213,
          0.5093653233168213,
          1.0
        ],
        "metallicFactor": 0.1,
        "roughnessFactor": 0.4
      }
    },
    {
      "doubleSided": true,
      "name": "Material_1",
      "pbrMetallicRoughness": {
        "baseColorFactor": [
          0.5271151257058131,
          0.04091519690685321,
          0.025186859627361637,
          1.0
        ],
        "metallicFactor": 0.0,
        "roughnessFactor": 0.6
      }
    },
    {
      "doubleSided": true,
      "name": "Material_10",
      "pbrMetallicRoughness": {
        "baseColorFactor": [
          1.0,
          0.4851499400560704,
          0.06662593864377286,
          1.0
        ],
        "metallicFactor": 0.0,
        "roughnessFactor": 0.6
      }
    },
    {
      "doubleSided": true,
      "name": "Material_11",
      "pbrMetallicRoughness": {
        "baseColorFactor": [
          0.11193242783690564,
          0.33245153634617935,
          0.10702310297826759,
          1.0
        ],
        "metallicFactor": 0.0,
        "roughnessFactor": 0.6
      }
    },
    {
      "doubleSided": true,
      "name": "Material_2",
      "pbrMetallicRoughness": {
        "baseColorFactor": [
          0.035601314875020336,
          0.035601314875020336,
          0.035601314875020336,
          1.0
        ],
        "metallicFactor": 0.0,
        "roughnessFactor": 0.6
      }
    },
    {
      "doubleSided": true,
      "name": "Material_3",
      "pbrMetallicRoughness": {
        "baseColorFactor": [
          0.5271151257058131,
          0.04091519690685321,
          0.025186859627361637,
          1.0
        ],
        "metallicFactor": 0.0,
        "roughnessFactor": 0.6
      }
    },
    {
      "doubleSided": true,
      "name": "Material_4",
      "pbrMetallicRoughness": {
        "baseColorFactor": [
          0.035601314875020336,
          0.035601314875020336,
          0.035601314875020336,
          1.0
        ],
        "metallicFactor": 0.0,
        "roughnessFactor": 0.6
      }
    },
    {
      "doubleSided": true,
      "name": "Material_5",
      "pbrMetallicRoughness": {
        "metallicFactor": 0.0,
        "roughnessFactor": 0.6
      }
    },
    {
      "doubleSided": true,
      "name": "Material_6",
      "pbrMetallicRoughness": {
        "baseColorFactor": [
          0.022173884793387368,
          0.21586050011389946,
          0.4851499400560704,
          1.0
        ],
        "metallicFactor": 0.0,
        "roughnessFactor": 0.6
      }
    },
    {
      "doubleSided": true,
      "name": "Material_7",
      "pbrMetallicRoughness": {
        "baseColorFactor": [
          0.022173884793387368,
          0.21586050011389946,
          0.4851499400560704,
          1.0
        ],
        "metallicFactor": 0.0,
        "roughnessFactor": 0.6
      }
    },
    {
      "doubleSided": true,
      "name": "Material_8",
      "pbrMetallicRoughness": {
        "baseColorFactor": [
          1.0,
          0.4851499400560702,
          0.06662593864377286,
          1.0
        ],
        "metallicFactor": 0.0,
        "roughnessFactor": 0.6
      }
    },
    {
      "doubleSided": true,
      "name": "Material_9",
      "pbrMetallicRoughness": {
        "baseColorFactor": [
          0.1119324278369056,
          0.33245153634617935,
          0.10702310297826759,
          1.0
        ],
        "metallicFactor": 0.0,
        "roughnessFactor": 0.6
      }
    }
  ],
  "meshes": [
    {
      "name": "Object_0",
      "primitives": [
        {
          "attributes": {
            "NORMAL": 1,
            "POSITION": 0,
            "TEXCOORD_0": 2
          },
          "indices": 3,
          "material": 2,
          "mode": 4
        }
      ]
    },
    {
      "name": "Object_1",
      "primitives": [
        {
          "attributes": {
            "NORMAL": 5,
            "POSITION": 4,
            "TEXCOORD_0": 6
          },
          "indices": 7,
          "material": 1,
          "mode": 4
        }
      ]
    },
    {
      "name": "Object_2",
      "primitives": [
        {
          "attributes": {
            "NORMAL": 9,
            "POSITION": 8,
            "TEXCOORD_0": 10
          },
          "indices": 11,
          "material": 4,
          "mode": 4
        }
      ]
    },
    {
      "name": "Object_3",
      "primitives": [
        {
          "attributes": {
            "NORMAL": 13,
            "POSITION": 12,
            "TEXCOORD_0": 14
          },
          "indices": 15,
          "material": 6,
          "mode": 4
        }
      ]
    },
    {
      "name": "Object_4",
      "primitives": [
        {
          "attributes": {
            "NORMAL": 17,
            "POSITION": 16,
            "TEXCOORD_0": 18
          },
          "indices": 19,
          "material": 3,
          "mode": 4
        }
      ]
    },
    {
      "name": "Object_5",
      "primitives": [
        {
          "attributes": {
            "NORMAL": 21,
            "POSITION": 20,
            "TEXCOORD_0": 22
          },
          "indices": 23,
          "material": 8,
          "mode": 4
        }
      ]
    },
    {
      "name": "Object_6",
      "primitives": [
        {
          "attributes": {
            "NORMAL": 25,
            "POSITION": 24,
            "TEXCOORD_0": 26
          },
          "indices": 27,
          "material": 11,
          "mode": 4
        }
      ]
    },
    {
      "name": "Object_7",
      "primitives": [
        {
          "attributes": {
            "NORMAL": 29,
            "POSITION": 28,
            "TEXCOORD_0": 30
          },
          "indices": 31,
          "material": 12,
          "mode": 4
        }
      ]
    },
    {
      "name": "Object_8",
      "primitives": [
        {
          "attributes": {
            "NORMAL": 33,
            "POSITION": 32,
            "TEXCOORD_0": 34
          },
          "indices": 35,
          "material": 0,
          "mode": 4
        }
      ]
    },
    {
      "name": "Object_9",
      "primitives": [
        {
          "attributes": {
            "NORMAL": 37,
            "POSITION": 36,
            "TEXCOORD_0": 38
          },
          "indices": 39,
          "material": 2,
          "mode": 4
        }
      ]
    },
    {
      "name": "Object_10",
      "primitives": [
        {
          "attributes": {
            "NORMAL": 41,
            "POSITION": 40,
            "TEXCOORD_0": 42
          },
          "indices": 43,
          "material": 7,
          "mode": 4
        }
      ]
    },
    {
      "name": "Object_11",
      "primitives": [
        {
          "attributes": {
            "NORMAL": 45,
            "POSITION": 44,
            "TEXCOORD_0": 46
          },
          "indices": 47,
          "material": 5,
          "mode": 4
        }
      ]
    },
    {
      "name": "Object_12",
      "primitives": [
        {
          "attributes": {
            "NORMAL": 49,
            "POSITION": 48,
            "TEXCOORD_0": 50
          },
          "indices": 51,
          "material": 6,
          "mode": 4
        }
      ]
    },
    {
      "name": "Object_13",
      "primitives": [
        {
          "attributes": {
            "NORMAL": 53,
            "POSITION": 52,
            "TEXCOORD_0": 54
          },
          "indices": 55,
          "material": 8,
          "mode": 4
        }
      ]
    },
    {
      "name": "Object_14",
      "primitives": [
        {
          "attributes": {
            "NORMAL": 57,
            "POSITION": 56,
            "TEXCOORD_0": 58
          },
          "indices": 59,
          "material": 9,
          "mode": 4
        }
      ]
    },
    {
      "name": "Object_15",
      "primitives": [
        {
          "attributes": {
            "NORMAL": 61,
            "POSITION": 60,
            "TEXCOORD_0": 62
          },
          "indices": 63,
          "material": 9,
          "mode": 4
        }
      ]
    },
    {
      "name": "Object_16",
      "primitives": [
        {
          "attributes": {
            "NORMAL": 65,
            "POSITION": 64,
            "TEXCOORD_0": 66
          },
          "indices": 67,
          "material": 10,
          "mode": 4
        }
      ]
    },
    {
      "name": "Object_17",
      "primitives": [
        {
          "attributes": {
            "NORMAL": 69,
            "POSITION": 68,
            "TEXCOORD_0": 70
          },
          "indices": 71,
          "material": 10,
          "mode": 4
        }
      ]
    }
  ],
  "nodes": [
    {
      "children": [
        1
      ],
      "matrix": [
        0.6896551847457886,
        0.0,
        0.0,
        0.0,
        0.0,
        1.531342130313781e-16,
        -0.6896551847457886,
        0.0,
        0.0,
        0.6896551847457886,
        1.531342130313781e-16,
        0.0,
        0.0,
        0.0,
        0.0,
        1.0
      ],
      "name": "Sketchfab_model"
    },
    {
      "children": [
        2,
        3,
        4,
        5,
        6,
        7,
        8,
        9,
        10,
        11,
        12,
        13,
        14,
        15,
        16,
        17,
        18,
        19
      ],
      "name": "Multicancha .obj.cleaner.materialmerger.gles"
    },
    {
      "mesh": 0,
      "name": "Object_2"
    },
    {
      "mesh": 1,
      "name": "Object_3"
    },
    {
      "mesh": 2,
      "name": "Object_4"
    },
    {
      "mesh": 3,
      "name": "Object_5"
    },
    {
      "mesh": 4,
      "name": "Object_6"
    },
    {
      "mesh": 5,
      "name": "Object_7"
    },
    {
      "mesh": 6,
      "name": "Object_8"
    },
    {
      "mesh": 7,
      "name": "Object_9"
    },
    {
      "mesh": 8,
      "name": "Object_10"
    },
    {
      "mesh": 9,
      "name": "Object_11"
    },
    {
      "mesh": 10,
      "name": "Object_12"
    },
    {
      "mesh": 11,
      "name": "Object_13"
    },
    {
      "mesh": 12,
      "name": "Object_14"
    },
    {
      "mesh": 13,
      "name": "Object_15"
    },
    {
      "mesh": 14,
      "name": "Object_16"
    },
    {
      "mesh": 15,
      "name": "Object_17"
    },
    {
      "mesh": 16,
      "name": "Object_18"
    },
    {
      "mesh": 17,
      "name": "Object_19"
    }
  ],
  "scene": 0,
  "scenes": [
    {
      "name": "Sketchfab_Scene",
      "nodes": [
        0
      ]
    }
  ]
}
