{
  "accessors": [
    {
      "bufferView": 2,
      "componentType": 5126,
      "count": 9984,
      "max": [
        98.07852935791016,
        97.58841705322266,
        98.56012725830078
      ],
      "min": [
        -98.07852935791016,
        -97.58845520019531,
        -98.56007385253906
      ],
      "type": "VEC3"
    },
    {
      "bufferView": 2,
      "byteOffset": 119808,
      "componentType": 5126,
      "count": 9984,
      "max": [
        0.9995212554931641,
        0.9974268078804016,
        0.9967929720878601
      ],
      "min": [
        -0.9995212554931641,
        -0.9974268078804016,
        -0.9967924952507019
      ],
      "type": "VEC3"
    },
    {
      "bufferView": 1,
      "componentType": 5126,
      "count": 9984,
      "max": [
        0.9999074339866638,
        0.9949245452880859
      ],
      "min": [
        0.0,
        0.0
      ],
      "type": "VEC2"
    },
    {
      "bufferView": 1,
      "byteOffset": 79872,
      "componentType": 5126,
      "count": 9984,
      "max": [
        0.9999074339866638,
        0.9949245452880859
      ],
      "min": [
        0.0,
        0.0
      ],
      "type": "VEC2"
    },
    {
      "bufferView": 0,
      "componentType": 5125,
      "count": 14976,
      "type": "SCALAR"
    },
    {
      "bufferView": 2,
      "byteOffset": 239616,
      "componentType": 5126,
      "count": 6394,
      "max": [
        96.20117950439453,
        96.99695587158203,
        96.99699401855469
      ],
      "min": [
        -96.20117950439453,
        -96.99697875976563,
        -96.9969482421875
      ],
      "type": "VEC3"
    },
    {
      "bufferView": 2,
      "byteOffset": 316344,
      "componentType": 5126,
      "count": 6394,
      "max": [
        1.0,
        1.0,
        1.0
      ],
      "min": [
        -1.0,
        -1.0,
        -1.0
      ],
      "type": "VEC3"
    },
    {
      "bufferView": 1,
      "byteOffset": 159744,
      "componentType": 5126,
      "count": 6394,
      "max": [
        1.0,
        0.9941904544830322
      ],
      "min": [
        0.0017004945548251271,
        0.0006571381818503141
      ],
      "type": "VEC2"
    },
    {
      "bufferView": 0,
      "byteOffset": 59904,
      "componentType": 5125,
      "count": 21360,
      "type": "SCALAR"
    }
  ],
  "asset": {
    "extras": {
      "author": "Mauro3D (https://sketchfab.com/maurogsw)",
      "license": "CC-BY-4.0 (http://creativecommons.org/licenses/by/4.0/)",
      "source": "https://sketchfab.com/3d-models/basketball-45aee654bbd541d18c9cd1a6c951f72d",
      "title": "Basketball"
    },
    "generator": "Sketchfab-12.68.0",
    "version": "2.0"
  },
  "bufferViews": [
    {
      "buffer": 0,
      "byteLength": 145344,
      "name": "floatBufferViews",
      "target": 34963
    },
    {
      "buffer": 0,
      "byteLength": 210896,
      "byteOffset": 145344,
      "byteStride": 8,
      "name": "floatBufferViews",
      "target": 34962
    },
    {
      "buffer": 0,
      "byteLength": 393072,
      "byteOffset": 356240,
      "byteStride": 12,
      "name": "floatBufferViews",
      "target": 34962
    }
  ],
  "buffers": [
    {
      "byteLength": 749312,
      "uri": "scene.bin"
    }
  ],
  "materials": [
    {
      "doubleSided": true,
      "name": "Leather",
      "pbrMetallicRoughness": {
        "baseColorFactor": [
          0.22602,
          0.0678463,
          0.0237817,
          1.0
        ],
        "metallicFactor": 0.0,
        "roughnessFactor": 0.9780211144095218
      }
    },
    {
      "doubleSided": true,
      "name": "InBetween",
      "pbrMetallicRoughness": {
        "baseColorFactor": [
          0.0,
          0.0,
          0.0,
          1.0
        ],
        "metallicFactor": 0.0
      }
    }
  ],
  "meshes": [
    {
      "name": "Sphere_Leather_0",
      "primitives": [
        {
          "attributes": {
            "NORMAL": 1,
            "POSITION": 0,
            "TEXCOORD_0": 2,
            "TEXCOORD_1": 3
          },
          "indices": 4,
          "material": 0,
          "mode": 4
        }
      ]
    },
    {
      "name": "Sphere_InBetween_0",
      "primitives": [
        {
          "attributes": {
            "NORMAL": 6,
            "POSITION": 5,
            "TEXCOORD_0": 7
          },
          "indices": 8,
          "material": 1,
          "mode": 4
        }
      ]
    }
  ],
  "nodes": [
    {
      "children": [
        1
      ],
      "matrix": [
        1.0,
        0.0,
        0.0,
        0.0,
        0.0,
        2.220446049250313e-16,
        -1.0,
        0.0,
        0.0,
        1.0,
        2.220446049250313e-16,
        0.0,
        0.0,
        0.0,
        0.0,
        1.0
      ],
      "name": "Sketchfab_model"
    },
    {
      "children": [
        2
      ],
      "matrix": [
        1.0,
        0.0,
        0.0,
        0.0,
        0.0,
        0.0,
        1.0,
        0.0,
        0.0,
        -1.0,
        0.0,
        0.0,
        0.0,
        0.0,
        0.0,
        1.0
      ],
      "name": "1b9127b61cb0430d8879a470f1c1f022.fbx"
    },
    {
      "children": [
        3
      ],
      "name": "RootNode"
    },
    {
      "children": [
        4,
        5
      ],
      "name": "Sphere"
    },
    {
      "mesh": 0,
      "name": "Sphere_Leather_0"
    },
    {
      "mesh": 1,
      "name": "Sphere_InBetween_0"
    }
  ],
  "scene": 0,
  "scenes": [
    {
      "name": "Sketchfab_Scene",
      "nodes": [
        0
      ]
    }
  ]
}
